<?xml version="1.0" standalone="no"?>
<!DOCTYPE svg PUBLIC "-//W3C//DTD SVG 20010904//EN"
 "http://www.w3.org/TR/2001/REC-SVG-20010904/DTD/svg10.dtd">
<svg version="1.0" xmlns="http://www.w3.org/2000/svg"
 width="512.000000pt" height="512.000000pt" viewBox="0 0 512.000000 512.000000"
 preserveAspectRatio="xMidYMid meet">

<g transform="translate(0.000000,512.000000) scale(0.100000,-0.100000)"
fill="#50b441" stroke="none">
<path d="M455 5108 c-91 -17 -213 -84 -286 -157 -76 -76 -141 -196 -158 -295
-15 -83 -15 -4109 0 -4192 17 -99 82 -219 158 -295 76 -76 196 -141 295 -158
83 -15 4109 -15 4192 0 99 17 219 82 295 158 76 76 141 196 158 295 15 83 15
4109 0 4192 -17 99 -82 219 -158 295 -76 76 -196 141 -295 158 -77 14 -4127
13 -4201 -1z m1119 -2175 c115 -577 212 -1053 215 -1060 3 -6 132 460 285
1035 154 576 281 1053 284 1060 3 9 53 12 202 12 149 0 199 -3 202 -12 3 -7
130 -484 284 -1060 153 -575 282 -1041 285 -1035 3 7 100 483 215 1060 l209
1047 241 0 241 0 -22 -92 c-12 -51 -165 -690 -340 -1421 l-319 -1327 -215 2
-214 3 -281 1053 c-154 578 -283 1052 -286 1052 -3 0 -132 -474 -286 -1052
l-281 -1053 -214 -3 -215 -2 -319 1327 c-175 731 -328 1370 -340 1421 l-22 92
241 0 241 0 209 -1047z"/>
</g>
</svg>
